<?xml version="1.0" encoding="UTF-8"?><svg xmlns="http://www.w3.org/2000/svg" viewBox="0 0 723 570"><defs><style>.cls-1{fill:#999;}.cls-1,.cls-2,.cls-3,.cls-4{stroke-miterlimit:10;}.cls-1,.cls-2,.cls-4{stroke:#fff;stroke-width:10px;}.cls-5,.cls-3{fill:#fff;}.cls-6{fill:gray;}.cls-2{fill:#00d1b2;}.cls-3{stroke:#000;stroke-width:16px;}</style></defs><g id="Ebene_2"><g><rect class="cls-5" x="9" y="56" width="628" height="440" rx="49.57" ry="49.57"/><path d="M587.43,65c22.37,0,40.57,18.2,40.57,40.57V446.43c0,22.37-18.2,40.57-40.57,40.57H58.57c-22.37,0-40.57-18.2-40.57-40.57V105.57c0-22.37,18.2-40.57,40.57-40.57H587.43m0-18H58.57C26.22,47,0,73.22,0,105.57V446.43c0,32.35,26.22,58.57,58.57,58.57H587.43c32.35,0,58.57-26.22,58.57-58.57V105.57c0-32.35-26.22-58.57-58.57-58.57h0Z"/></g></g><g id="Ebene_3"><rect class="cls-4" x="108" y="5" width="24" height="100" rx="9.72" ry="9.72"/><rect class="cls-4" x="511" y="5" width="24" height="100" rx="9.72" ry="9.72"/></g><g id="Ebene_4"><rect class="cls-1" x="67" y="128" width="66" height="66" rx="18.67" ry="18.67"/><rect class="cls-1" x="142" y="128" width="66" height="66" rx="18.67" ry="18.67"/><rect class="cls-1" x="213" y="128" width="66" height="66" rx="18.67" ry="18.67"/><rect class="cls-1" x="287" y="128" width="66" height="66" rx="18.67" ry="18.67"/><rect class="cls-1" x="365" y="128" width="66" height="66" rx="18.67" ry="18.67"/><rect class="cls-2" x="439" y="128" width="66" height="66" rx="18.67" ry="18.67"/><rect class="cls-2" x="513" y="128" width="66" height="66" rx="18.67" ry="18.67"/><rect class="cls-1" x="67" y="212" width="66" height="66" rx="18.67" ry="18.67"/><rect class="cls-1" x="142" y="212" width="66" height="66" rx="18.67" ry="18.67"/><rect class="cls-1" x="213" y="212" width="66" height="66" rx="18.67" ry="18.67"/><rect class="cls-1" x="287" y="212" width="66" height="66" rx="18.67" ry="18.67"/><rect class="cls-1" x="365" y="212" width="66" height="66" rx="18.67" ry="18.67"/><rect class="cls-2" x="439" y="212" width="66" height="66" rx="18.67" ry="18.67"/><rect class="cls-2" x="513" y="212" width="66" height="66" rx="18.67" ry="18.67"/><rect class="cls-1" x="67" y="296" width="66" height="66" rx="18.67" ry="18.67"/><rect class="cls-1" x="142" y="296" width="66" height="66" rx="18.67" ry="18.67"/><rect class="cls-1" x="213" y="296" width="66" height="66" rx="18.67" ry="18.67"/><rect class="cls-1" x="287" y="296" width="66" height="66" rx="18.67" ry="18.67"/><rect class="cls-1" x="365" y="296" width="66" height="66" rx="18.67" ry="18.67"/><rect class="cls-2" x="439" y="296" width="66" height="66" rx="18.67" ry="18.67"/><rect class="cls-2" x="513" y="296" width="66" height="66" rx="18.67" ry="18.67"/><rect class="cls-1" x="67" y="380" width="66" height="66" rx="18.67" ry="18.67"/><rect class="cls-1" x="142" y="380" width="66" height="66" rx="18.67" ry="18.67"/><rect class="cls-1" x="213" y="380" width="66" height="66" rx="18.67" ry="18.67"/><rect class="cls-1" x="287" y="380" width="66" height="66" rx="18.67" ry="18.67"/><rect class="cls-1" x="365" y="380" width="66" height="66" rx="18.67" ry="18.67"/><rect class="cls-2" x="439" y="380" width="66" height="66" rx="18.67" ry="18.67"/><rect class="cls-2" x="513" y="380" width="66" height="66" rx="18.67" ry="18.67"/></g><g id="Ebene_6"><circle class="cls-3" cx="580.5" cy="427.5" r="134.5"/><rect class="cls-6" x="600.45" y="329.68" width="11.58" height="110.05" rx="5.79" ry="5.79" transform="translate(273.57 -251.58) rotate(30)"/><rect class="cls-6" x="550.33" y="374.09" width="11.58" height="60.24" rx="5.79" ry="5.79" transform="translate(-122.93 511.62) rotate(-45)"/><circle cx="580.5" cy="427.5" r="9.65"/></g></svg>